# xmcd CD database file
#
# Track frame offsets:
#	150
#	11168
#	31304
#	44629
#	60004
#	79101
#	97232
#	117862
#	138959
#	153427
#	165478
#	181154
#
# Disc length: 2697 seconds
#
# Revision: 0
# Processed by: cddbd v1.5.2PL0 Copyright (c) Steve Scherf et al.
# Submitted via: CDex 1.51
#
DISCID=910a870c
DTITLE=Roman Barabakh - The Sound of Music
DYEAR=2008
DGENRE=Jazz
TTITLE0=Ciliegi Rosa
TTITLE1=Amapola
TTITLE2=Cabaret
TTITLE3=Blue Moon
TTITLE4=Copa
TTITLE5=Gentelmeny Udaci
TTITLE6=Misty
TTITLE7=My Way
TTITLE8=Petit Fleur
TTITLE9=Summer Time
TTITLE10=Walse Boston
TTITLE11=Arrivederci Roma
EXTD=YEAR: 2008
EXTT0=
EXTT1=
EXTT2=
EXTT3=
EXTT4=
EXTT5=
EXTT6=
EXTT7=
EXTT8=
EXTT9=
EXTT10=
EXTT11=
PLAYORDER=
